<?xml version="1.0" encoding="UTF-8"?>
<svg id="Outline" xmlns="http://www.w3.org/2000/svg" version="1.1" viewBox="0 0 64 64">
  <path d="M53.8563,14.07191c-.49609-.62988-1.20605-1.02832-1.99365-1.12109l-5.36279-.66217v-2.28607c0-1.6543-1.3457-3-3-3h-19c-.26514,0-.51953.10547-.70703.29297l-7,7c-.1875.1875-.29297.44141-.29297.70703v2.73511l-4.35742.53149c-.79248.09375-1.50244.49219-1.99854,1.12207-.49951.63379-.72217,1.42285-.62695,2.22363l4.02979,32.74609c.09521.79587.49656,1.50777,1.13129,2.00288.58896.45941,1.44102.71277,2.21344.61138l23.81641-2.91992c.79395-.09473,1.50342-.49707,1.99902-1.13379.39105-.50256.60095-1.10242.62579-1.72894l3.77118.46234c.77025.09443,1.58832-.11931,2.21777-.61133.63477-.49512,1.03613-1.20703,1.13086-1.99902l4.03076-32.75391c.09473-.79688-.12793-1.58496-.62695-2.21875ZM23.49985,10.41664v3.58594h-3.58594l3.58594-3.58594ZM41.12827,51.69301c-.16455.21191-.39795.3457-.66016.37695l-23.82422,2.9209c-.26221.03809-.52441-.03809-.73486-.20312-.21143-.16504-.34473-.40039-.37646-.66699l-4.02979-32.74609c-.03174-.2666.04346-.53125.21191-.74512.16553-.20996.40088-.34277.66602-.375l4.11914-.50281v23.25085c0,1.6543,1.3457,3,3,3h1.16742c.04797.57697.2608,1.12988.62555,1.59863.49512.63672,1.20508,1.04004,1.99561,1.13379l18.04797,2.21277.00037.00305c.03174.26562-.04248.5293-.2085.74219ZM48.46665,48.80433c-.03125.2627-.16455.49805-.37598.66309-.21045.16406-.46777.23535-.73926.20312l-23.82324-2.9209c-.25879-.03027-.4917-.16406-.65625-.37598-.08722-.11206-.14569-.2384-.1803-.37109h20.80823c1.6543,0,3-1.3457,3-3v-14c0-.55273-.44775-1-1-1s-1,.44727-1,1v14c0,.55176-.44873,1-1,1h-24c-.55127,0-1-.44824-1-1v-27h6c.55225,0,1-.44727,1-1v-6h18c.55127,0,1,.44824,1,1v11c0,.55273.44775,1,1,1s1-.44727,1-1v-6.69922l5.12305.63281c.26172.03125.49707.16406.6626.37402.16797.21289.24316.47754.21191.74023l-4.03076,32.75391Z" fill="#d1d5db" stroke-width="0"/>
  <path d="M21.49985,22.00258h12c.55225,0,1-.44727,1-1s-.44775-1-1-1h-12c-.55225,0-1,.44727-1,1s.44775,1,1,1Z" fill="#000" stroke-width="0"/>
  <path d="M21.49985,26.00258h12c.55225,0,1-.44727,1-1s-.44775-1-1-1h-12c-.55225,0-1,.44727-1,1s.44775,1,1,1Z" fill="#000" stroke-width="0"/>
  <path d="M41.49985,28.00258h-20c-.55225,0-1,.44727-1,1s.44775,1,1,1h20c.55225,0,1-.44727,1-1s-.44775-1-1-1Z" fill="#000" stroke-width="0"/>
  <path d="M41.49985,32.00258h-20c-.55225,0-1,.44727-1,1s.44775,1,1,1h20c.55225,0,1-.44727,1-1s-.44775-1-1-1Z" fill="#000" stroke-width="0"/>
  <circle cx="45.49985" cy="25.00258" r="1" fill="#d1d5db" stroke-width="0"/>
</svg>