<?xml version="1.0" encoding="UTF-8"?>
<svg id="Outline" xmlns="http://www.w3.org/2000/svg" version="1.1" viewBox="0 0 64 64">
  <path d="M56.74499,49.30612l-5.73004-32.51001c-.20996-1.17999-1.09998-2.09003-2.21997-2.37v-.42999c0-1.65002-1.46002-3-3.25-3h-12.75v-1c0-1.65002-1.34998-3-3-3s-3,1.34998-3,3v1h-4.75c-1.78998,0-3.25,1.34998-3.25,3v8.06c-4.48999.5-8,4.32001-8,8.94,0,1.39001.32001,2.70001.89001,3.87l-3.60004,3.58997c-1.16998,1.17004-1.16998,3.07999-.00002,4.24998,1.13348,1.13351,3.10096,1.1297,4.25002.00002l3.59003-3.59998c.89001.42999,1.84998.71997,2.87.83002v7.06c0,1.64996,1.46002,3,3.25,3h4.37l.79999,4.51001c.13.78997.57,1.47997,1.23003,1.94995.59112.4209,1.48041.66635,2.22999.49006l23.64001-4.16003c.78998-.14001,1.46997-.58002,1.92999-1.23999.46997-.65997.64001-1.46002.5-2.23999ZM28.79498,9.99612c0-.54999.45001-1,1-1s1,.45001,1,1v1h-2v-1ZM24.79498,12.99612h2v1c0,1.64996,1.34998,3,3,3,.54999,0,1-.45001,1-1s-.45001-1-1-1-1-.45001-1-1v-1h6v5c0,.54999-.45001,1-1,1h-8c-.54999,0-1-.45001-1-1v-5ZM10.91497,41.2861c-.39001.39001-1.02002.39001-1.40997,0-.39001-.39001-.39001-1.02002,0-1.40997l3.25995-3.27002c.42004.52002.90002,1,1.42004,1.41998l-3.27002,3.26001ZM12.79498,30.99612c0-3.85999,3.14001-7,7-7s7,3.14001,7,7-3.14001,7-7,7-7-3.14001-7-7ZM54.60498,50.39608c-.15002.22003-.38.37-.63.42004l-23.64001,4.16998c-.25995.03998-.51996-.02002-.73999-.16998-.21997-.16003-.37-.39001-.41998-.65002l-.72998-4.16998h17.09998c1.78998,0,3.25-1.35004,3.25-3v-6c0-.54999-.45001-1-1-1s-1,.45001-1,1v6c0,.53998-.57001,1-1.25,1h-23.5c-.67999,0-1.25-.46002-1.25-1v-7.06c4.48999-.5,8-4.32001,8-8.94s-3.51001-8.44-8-8.94v-8.06c0-.54004.57001-1,1.25-1h.75v5c0,1.64996,1.34998,3,3,3h8c1.65002,0,3-1.35004,3-3v-5h8.75c.67999,0,1.25.45996,1.25,1v19c0,.54999.45001,1,1,1s1-.45001,1-1v-16.33002c.12.13.21997.28998.26001.47998l5.72998,32.5c.04004.27002-.02002.53003-.17999.75Z" fill="#000" stroke-width="0"/>
  <path d="M27.79498,39.99612h-4c-.55273,0-1,.44727-1,1v4c0,.55273.44727,1,1,1h4c.55273,0,1-.44727,1-1v-4c0-.55273-.44727-1-1-1ZM26.79498,43.99612h-2v-2h2v2Z" fill="#000" stroke-width="0"/>
  <path d="M31.79498,41.99612h8c.55273,0,1-.44727,1-1s-.44727-1-1-1h-8c-.55273,0-1,.44727-1,1s.44727,1,1,1Z" fill="#000" stroke-width="0"/>
  <path d="M43.79498,43.99612h-12c-.55273,0-1,.44727-1,1s.44727,1,1,1h12c.55273,0,1-.44727,1-1s-.44727-1-1-1Z" fill="#000" stroke-width="0"/>
  <circle cx="47.79498" cy="36.99612" r="1" fill="#000" stroke-width="0"/>
</svg>